<svg width="66" height="66" viewBox="0 0 66 66" fill="none" xmlns="http://www.w3.org/2000/svg">
<path fill-rule="evenodd" clip-rule="evenodd" d="M0 33C0 51.2254 14.7746 66 33 66C51.2254 66 66 51.2254 66 33C66 14.7746 51.2254 0 33 0C14.7746 0 0 14.7746 0 33ZM29 19C29 18.4477 28.5523 18 28 18H24C23.4477 18 23 18.4477 23 19V47C23 47.5523 23.4477 48 24 48H28C28.5523 48 29 47.5523 29 47V19ZM42 19C42 18.4477 41.5523 18 41 18H37C36.4477 18 36 18.4477 36 19V47C36 47.5523 36.4477 48 37 48H41C41.5523 48 42 47.5523 42 47V19Z" fill="white"/>
</svg>
